<svg width="24" height="24" viewBox="0 0 24 24" fill="none" xmlns="http://www.w3.org/2000/svg">
<path fill-rule="evenodd" clip-rule="evenodd" d="M5.52843 6.78859L5.54 6.8089L5.54023 6.80929C5.81389 7.28157 5.93825 7.72759 5.92908 8.12042C5.92761 8.1834 5.92271 8.24501 5.91444 8.30514C5.86636 8.65479 5.70445 8.95446 5.44149 9.1823C5.37788 9.23741 5.30836 9.28832 5.23311 9.33472C4.89743 9.5417 4.4477 9.6589 3.9 9.6589C2.85 9.6589 2 10.5189 2 11.5589V13.3189C2 14.3589 2.85 15.2189 3.9 15.2189C4.44878 15.2189 4.89919 15.3366 5.23508 15.5443C5.30958 15.5904 5.37844 15.6409 5.44149 15.6955C5.70445 15.9233 5.86636 16.223 5.91444 16.5727C5.92271 16.6328 5.92761 16.6944 5.92908 16.7574C5.93823 17.1495 5.81432 17.5947 5.54163 18.0661L5.54022 18.0685L5.54 18.0689C5.51426 18.1135 5.49055 18.1587 5.46885 18.2044C5.45933 18.2245 5.45018 18.2447 5.44143 18.265C5.06721 19.1323 5.39482 20.1759 6.24 20.6589L7.97 21.6489C8.76 22.1189 9.78 21.8389 10.25 21.0489L10.3584 20.8617L10.36 20.8589L10.3622 20.8551C10.6365 20.3831 10.9624 20.0535 11.3085 19.8662C11.3642 19.8361 11.4204 19.8096 11.477 19.7868C11.8245 19.6471 12.1868 19.6463 12.5336 19.7843C12.5904 19.8069 12.6467 19.8333 12.7025 19.8633C13.0437 20.047 13.3645 20.3699 13.6345 20.8321L13.65 20.8589L13.6516 20.8617L13.76 21.0489C14.23 21.8389 15.25 22.1189 16.04 21.6489L17.77 20.6589C18.6157 20.1757 18.9432 19.1397 18.5679 18.2654C18.5592 18.2451 18.5501 18.2248 18.5407 18.2047C18.5224 18.1659 18.5026 18.1273 18.4815 18.0893L18.47 18.0689L18.4698 18.0685C18.1961 17.5962 18.0718 17.1502 18.0809 16.7574C18.0824 16.6939 18.0874 16.6318 18.0958 16.5713C18.1441 16.2222 18.3059 15.923 18.5685 15.6955C18.6321 15.6404 18.7016 15.5895 18.7769 15.5431C19.1126 15.3361 19.5623 15.2189 20.11 15.2189C21.16 15.2189 22.01 14.3589 22.01 13.3189V11.5589C22.01 10.5089 21.15 9.6589 20.11 9.6589C19.5612 9.6589 19.1108 9.54124 18.7749 9.3335C18.7004 9.28743 18.6316 9.23692 18.5685 9.18229C18.3056 8.95445 18.1436 8.65479 18.0956 8.30515C18.0873 8.24501 18.0824 8.1834 18.0809 8.12042C18.0718 7.72827 18.1957 7.28309 18.4684 6.81171L18.4698 6.80931L18.47 6.8089C18.4957 6.76435 18.5194 6.71914 18.5411 6.67338C18.5507 6.6533 18.5598 6.63311 18.5686 6.61282C18.9428 5.74554 18.6152 4.70187 17.77 4.2189L16.04 3.2289C15.25 2.7589 14.23 3.0389 13.76 3.8289L13.6516 4.01609L13.65 4.0189L13.6478 4.02273C13.3735 4.49471 13.0476 4.82434 12.7015 5.01162C12.6459 5.04171 12.5898 5.06813 12.5332 5.09087C12.1857 5.23071 11.8233 5.23157 11.4764 5.09345C11.4196 5.07086 11.3633 5.04454 11.3075 5.0145C10.9606 4.82774 10.6349 4.49715 10.3622 4.02274L10.36 4.0189L10.3584 4.01609L10.25 3.8289C9.78 3.0389 8.76 2.7589 7.97 3.2289L6.24 4.2189C5.39482 4.70186 5.06721 5.74552 5.44143 6.6128C5.45019 6.6331 5.45933 6.65329 5.46885 6.67338C5.48726 6.7122 5.50712 6.75063 5.52843 6.78859ZM12.0002 7.8335C10.9085 7.8335 10.021 8.721 10.021 9.81266C10.021 10.8835 10.8585 11.7502 11.9502 11.7877C11.9835 11.7835 12.0168 11.7835 12.0418 11.7877H12.0627H12.071C13.1377 11.7502 13.9752 10.8835 13.9793 9.81266C13.9793 8.721 13.0918 7.8335 12.0002 7.8335ZM8 15.8125C8 14.26 9.79538 13 12 13C14.2046 13 16 14.26 16 15.8125C16 15.9175 15.9032 16 15.78 16H8.22002C8.09681 16 8 15.9175 8 15.8125Z" fill="#292D32"/>
</svg>
