<?xml version="1.0" standalone="no"?>
<!DOCTYPE svg PUBLIC "-//W3C//DTD SVG 20010904//EN"
 "http://www.w3.org/TR/2001/REC-SVG-20010904/DTD/svg10.dtd">
<svg version="1.0" xmlns="http://www.w3.org/2000/svg"
 width="500.000000pt" height="500.000000pt" viewBox="0 0 500.000000 500.000000"
 preserveAspectRatio="xMidYMid meet">

<g transform="translate(0.000000,500.000000) scale(0.100000,-0.100000)"
fill="#000000" stroke="none">
<path d="M0 2500 l0 -2500 2500 0 2500 0 0 2500 0 2500 -2500 0 -2500 0 0
-2500z m2996 1660 c152 -13 283 -41 384 -82 111 -44 218 -100 203 -105 -7 -3
-26 5 -43 17 -16 12 -30 18 -30 13 0 -5 15 -17 33 -28 17 -10 34 -21 37 -24 3
-3 14 -11 25 -17 11 -7 19 -19 19 -28 -1 -9 6 -16 15 -17 10 0 11 -3 4 -6 -8
-2 13 -28 50 -61 34 -31 77 -75 97 -97 19 -21 45 -50 58 -62 12 -13 22 -27 22
-31 0 -11 36 -80 51 -98 6 -8 9 -17 5 -21 -3 -3 0 -13 7 -22 17 -20 59 -136
64 -176 2 -16 10 -62 18 -102 8 -40 15 -84 15 -99 0 -15 5 -57 12 -93 10 -61
12 -64 20 -36 7 27 5 153 -7 312 -3 34 -14 85 -25 114 -11 29 -18 55 -16 57 5
4 46 -104 46 -121 0 -7 4 -17 9 -22 25 -26 44 -273 44 -570 0 -436 -22 -615
-96 -795 -145 -351 -420 -571 -792 -635 -51 -8 -211 -19 -370 -24 -297 -11
-344 -18 -453 -68 -49 -23 -374 -219 -656 -397 -82 -51 -95 -56 -146 -56 -49
0 -60 4 -83 28 -34 35 -34 60 -2 154 61 177 78 295 51 371 -8 20 -10 37 -5 37
13 0 11 65 -2 110 -6 20 -27 54 -45 74 -37 40 -43 63 -19 72 17 7 95 -40 95
-57 0 -5 4 -7 10 -4 11 7 65 -65 86 -114 19 -46 18 -109 -5 -173 -11 -29 -27
-84 -36 -123 -9 -38 -21 -88 -27 -110 -5 -22 -10 -51 -11 -65 -6 -83 182 13
560 285 132 95 223 153 278 178 108 49 292 77 512 77 124 0 225 12 353 41 85
19 180 57 180 71 0 5 6 8 13 8 7 0 42 31 78 69 53 55 70 82 88 135 12 37 20
72 18 79 -3 7 -6 2 -6 -10 -1 -17 -5 -21 -18 -16 -11 4 -13 8 -5 11 7 2 10 8
6 13 -6 11 -64 12 -64 2 0 -5 -17 -9 -37 -10 -21 -1 -39 -6 -41 -12 -2 -5 -10
-7 -19 -4 -8 3 -19 0 -24 -8 -6 -11 -12 -11 -27 -3 -17 11 -89 18 -170 16 -21
0 -30 3 -26 10 5 8 -3 9 -23 5 -17 -3 -52 -8 -79 -10 -27 -3 -40 -3 -29 0 41
9 92 26 143 49 29 13 55 24 58 24 11 0 81 55 112 89 51 55 105 131 129 181 25
52 58 179 69 265 5 35 9 50 12 36 4 -23 23 -49 39 -54 4 -1 8 -6 8 -12 2 -28
27 -53 60 -59 45 -9 75 0 75 22 0 13 2 14 9 4 6 -10 8 -5 9 15 1 15 4 53 7 83
23 223 25 323 10 539 -7 100 -18 155 -50 236 -13 33 -26 70 -30 83 -3 12 -11
22 -16 22 -5 0 -9 4 -9 10 0 5 -16 32 -35 59 -19 26 -35 51 -35 53 0 7 -44 58
-105 123 -33 34 -66 58 -95 68 -78 27 -194 57 -218 57 -13 0 -31 4 -41 9 -62
34 -894 45 -1044 15 -25 -5 -152 -15 -189 -15 -10 0 -18 -5 -18 -11 0 -6 -11
-8 -27 -5 -16 3 -32 -1 -41 -9 -8 -8 -22 -12 -33 -9 -14 5 -22 0 -29 -20 -6
-15 -8 -30 -5 -35 3 -4 -5 -6 -17 -3 l-23 5 23 -19 c22 -18 23 -21 8 -36 -24
-23 -20 -27 27 -27 27 0 37 -3 29 -9 -11 -6 -10 -10 4 -15 10 -4 20 -2 23 3 4
6 12 6 20 2 9 -6 -11 -14 -60 -25 -136 -32 -271 -115 -352 -218 -52 -65 -104
-180 -123 -268 -9 -41 -19 -149 -23 -240 -4 -91 -9 -153 -9 -137 -2 23 -6 27
-30 27 -17 0 -38 -10 -52 -25 -13 -14 -28 -25 -34 -25 -6 0 -25 -16 -42 -35
-41 -46 -54 -109 -55 -265 0 -134 2 -161 32 -313 14 -68 17 -103 10 -116 -6
-10 -7 -21 -4 -25 3 -3 -2 -6 -13 -6 -37 0 -83 52 -115 130 -36 89 -62 206
-84 385 -9 72 -21 134 -26 140 -5 5 -10 25 -10 45 -1 25 -5 15 -14 -35 -6 -38
-15 -81 -19 -95 -6 -19 -5 -21 3 -10 9 12 11 11 11 -7 0 -12 -5 -25 -11 -29
-8 -4 -9 -24 -5 -58 4 -28 8 -91 10 -141 l3 -90 -12 70 c-39 221 -45 716 -10
944 36 249 121 436 268 597 182 199 509 340 842 363 165 12 854 12 981 1z
m664 -232 c0 -5 -13 1 -30 14 -16 12 -30 23 -30 25 0 2 14 -4 30 -14 17 -9 30
-21 30 -25z m-1597 -315 c-13 -2 -33 -2 -45 0 -13 2 -3 4 22 4 25 0 35 -2 23
-4z m390 0 c-62 -2 -164 -2 -225 0 -62 1 -12 3 112 3 124 0 174 -2 113 -3z
m224 1 c-3 -3 -12 -4 -19 -1 -8 3 -5 6 6 6 11 1 17 -2 13 -5z m356 -1 c-7 -2
-21 -2 -30 0 -10 3 -4 5 12 5 17 0 24 -2 18 -5z m-1099 -703 c14 -5 39 -23 56
-41 109 -114 14 -288 -145 -265 -60 9 -115 68 -122 129 -7 59 1 88 34 128 44
52 116 73 177 49z m467 -26 c42 -39 59 -75 59 -123 0 -53 -12 -80 -50 -118
-57 -56 -168 -54 -221 4 -52 57 -62 118 -30 181 35 70 78 94 159 89 42 -3 59
-10 83 -33z m417 9 c50 -38 67 -70 67 -132 0 -48 -5 -64 -28 -94 -34 -45 -53
-55 -111 -63 -94 -13 -176 61 -176 158 0 54 44 122 93 144 42 19 121 12 155
-13z m421 -2 c46 -33 74 -94 68 -149 -14 -125 -170 -185 -261 -99 -110 104
-33 286 115 274 27 -2 60 -13 78 -26z m-1393 -1087 c3 -17 4 -46 1 -65 -3 -27
-4 -24 -6 16 -1 32 -10 66 -26 95 l-25 45 25 -30 c14 -16 28 -44 31 -61z m644
61 c0 -2 -19 -14 -42 -26 -24 -12 -45 -25 -48 -28 -3 -4 -21 -18 -40 -31 -19
-14 -76 -59 -127 -102 -86 -72 -164 -128 -179 -128 -3 0 22 21 57 47 35 25 93
72 129 104 72 64 120 99 195 141 54 30 55 30 55 23z m-470 -339 c0 -2 -7 -7
-16 -10 -8 -3 -12 -2 -9 4 6 10 25 14 25 6z"/>
<path d="M3790 2400 c0 -13 20 -13 40 0 12 8 9 10 -12 10 -16 0 -28 -4 -28
-10z"/>
<path d="M3773 2363 c9 -2 23 -2 30 0 6 3 -1 5 -18 5 -16 0 -22 -2 -12 -5z"/>
<path d="M2593 1379 c-58 -10 -187 -58 -178 -67 3 -3 -9 -12 -26 -19 -18 -7
-30 -15 -27 -18 5 -5 70 16 78 26 3 3 23 9 45 13 108 18 174 32 180 38 4 4 15
4 24 -1 17 -9 129 0 171 14 24 8 24 8 5 16 -26 10 -206 9 -272 -2z"/>
<path d="M1787 2850 c-88 -69 -33 -220 79 -220 65 0 99 21 119 74 22 56 14 89
-30 133 -29 29 -39 33 -88 33 -39 0 -61 -6 -80 -20z"/>
<path d="M2217 2850 c-58 -46 -56 -144 4 -194 59 -50 160 -28 193 41 21 45 20
79 -4 118 -33 53 -144 74 -193 35z"/>
<path d="M2683 2862 c-12 -2 -33 -15 -47 -29 -22 -21 -26 -35 -26 -80 0 -49 4
-59 34 -89 30 -30 40 -34 86 -34 46 0 56 4 85 33 43 43 55 98 31 142 -30 56
-73 71 -163 57z"/>
<path d="M3094 2851 c-64 -39 -79 -91 -48 -157 21 -43 59 -64 118 -64 55 0
101 34 117 90 15 49 6 81 -32 119 -25 26 -38 31 -77 31 -29 0 -59 -8 -78 -19z"/>
</g>
</svg>
